<svg version="1.1" id="Layer_1" xmlns="http://www.w3.org/2000/svg" viewBox="0 0 26 26"
    style="enable-background:new 0 0 26 26;" class="icon" fill="#fffbe0">
    <g>
    <path
        d="M 251.058 219.499 c -0.621 -0.01 -1.237 -0.015 -1.856 -0.015 c -2.818 0 -5.612 0.108 -8.386 0.3 c 3.115 -4.797 5.923 -9.828 8.41 -15.053 c 
        2.488 5.225 5.31 10.249 8.427 15.05 c -2.184 -0.152 -4.382 -0.249 -6.595 -0.282 Z m -1.06 -79.499 c 4.606 0 9.107 0.43 13.483 1.212 c -0.219 
        2.422 -0.38 4.86 -0.416 7.33 c -0.593 39.734 22.998 74.364 57.343 90.375 c -3.166 8.524 -7.903 16.3 -13.844 23.018 c -15.708 -10.617 -34.646 
        -16.962 -55.097 -17.258 c -0.503 -0.007 -1.007 -0.01 -1.508 -0.01 c -20.46 0 -40.001 6.036 -56.554 17.238 c -5.925 -6.71 -10.65 -14.469 -13.813 
        -22.975 c 33.867 -15.79 57.35 -49.717 57.35 -88.944 c 0 -2.959 -0.158 -5.881 -0.42 -8.775 c 4.375 -0.781 8.873 -1.211 13.476 -1.211 Z m 40.657 
        11.088 c 0.62 24.836 14.164 46.564 34.266 58.898 c 0.043 1.024 0.079 2.049 0.079 3.082 c 0 3.82 -0.295 7.57 -0.864 11.233 c -27.632 -14.007 
        -46.585 -42.351 -46.585 -74.988 c 0 -1.61 0.057 -3.208 0.149 -4.797 c 4.555 1.781 8.89 3.987 12.955 6.572 Z m -74.02 128.912 c -4.455 -2.195 
        -8.655 -4.818 -12.553 -7.81 c 13.293 -8.386 29.04 -13.265 45.92 -13.265 c 16.879 0 32.623 4.878 45.916 13.26 c -3.898 2.994 -8.098 5.616 -12.552 
        7.813 c -10.003 -5.145 -21.342 -8.07 -33.363 -8.07 c -12.024 0 -23.364 2.927 -33.369 8.072 Z m -41.556 -70.013 c 20.1 -12.336 33.645 -34.063 
        34.266 -58.9 c 4.065 -2.584 8.4 -4.79 12.955 -6.57 c 0.092 1.588 0.149 3.185 0.149 4.795 c 0 32.638 -18.954 60.982 -46.586 74.99 c -0.569 -3.663 
        -0.863 -7.415 -0.863 -11.233 c 0 -1.034 0.036 -2.06 0.079 -3.082 Z" />
    </g>
</svg>